{"title":"The Lorax (2012) 1080p BluRay {Dual Audio} {6Ch.} [Hindi DTS 5.1","uid":9697886,"size":2069698254,"categoryP":"video","categoryS":"hd___movies","magnet":"?xt=urn:btih:fe1cec12d2788b1eac9c21c5c9f92c946444d39a&amp;dn=The+Lorax+%282012%29+1080p+BluRay+%7BDual+Audio%7D+%7B6Ch.%7D+%5BHindi+DTS+5.1&amp;tr=udp%3A%2F%2Ftracker.openbittorrent.com%3A80&amp;tr=udp%3A%2F%2Fopen.demonii.com%3A1337&amp;tr=udp%3A%2F%2Ftracker.coppersurfer.tk%3A6969&amp;tr=udp%3A%2F%2Fexodus.desync.com%3A6969","seeders":0,"leechers":2,"uploader":"SaNRiM","files":-1,"time":1393961180,"description":"Storyline\n\nIn the walled city of Thneed-Ville, where everything is artificial and even the air is a commodity, a boy named Ted hopes to win the heart of his dream girl, Audrey. When he learns of her wish to see a real tree, Ted seeks out the Once-ler, a ruined old businessman outside of town in a stark wasteland. Upon hearing of how the hermit gave into his greed for profits and devastated the land over the protests of the Lorax, Ted is inspired to undo the disaster. However, the greedy Mayor of Thneed-Ville, Aloysius O'Hare, has made his fortune exploiting the environmental collapse and is determined to stop the boy from undermining his business.\n\n\n\nTorrent Info\n\nGeneral\n\nUnique ID : 254119911207332341493696256046106791046 (0xBF2DB6F309022B33B3DB2746679DCC86)\nComplete name : The Lorax (2012) 1080p BluRay {Dual Audio} {6Ch.} [Hindi DTS 5.1-English DD 5.1]~SaNRiM~.mkv\nFormat : Matroska\nFormat version : Version 4 / Version 2\nFile size : 1.92 GiB\nDuration : 1h 26mn\nOverall bit rate : 3 182 Kbps\nEncoded date : UTC 2014-03-04 03:55:18\nWriting library : libebml v1.3.0 + libmatroska v1.4.1\n\n\nVideo\n\nID : 1\nFormat : AVC\nFormat/Info : Advanced Video Codec\nFormat profile : &lt;a class=&quot;__cf_email__&quot; href=&quot;/cdn-cgi/l/email-protection&quot; data-cfemail=&quot;753d1c121d3539415b44&quot;&gt;[email&amp;#160;protected]&lt;/a&gt;&lt;script cf-hash='f9e31' type=&quot;text/javascript&quot;&gt;\n/* &lt;![CDATA[ */!function(){try{var t=&quot;currentScript&quot;in document?document.currentScript:function(){for(var t=document.getElementsByTagName(&quot;script&quot;),e=t.length;e--;)if(t[e].getAttribute(&quot;cf-hash&quot;))return t[e]}();if(t&amp;&amp;t.previousSibling){var e,r,n,i,c=t.previousSibling,a=c.getAttribute(&quot;data-cfemail&quot;);if(a){for(e=&quot;&quot;,r=parseInt(a.substr(0,2),16),n=2;a.length-n;n+=2)i=parseInt(a.substr(n,2),16)^r,e+=String.fromCharCode(i);e=document.createTextNode(e),c.parentNode.replaceChild(e,c)}}}catch(u){}}();/* ]]&gt; */&lt;/script&gt;\nFormat settings, CABAC : Yes\nFormat settings, ReFrames : 4 frames\nCodec ID : V_MPEG4/ISO/AVC\nDuration : 1h 26mn\nBit rate : 1 965 Kbps\nWidth : 1 920 pixels\nHeight : 1 040 pixels\nDisplay aspect ratio : 1.85:1\nFrame rate mode : Constant\nFrame rate : 23.976 fps\nColor space : YUV\nChroma subsampling : 4:2:0\nBit depth : 8 bits\nScan type : Progressive\nBits/(Pixel*Frame) : 0.041\nStream size : 1.15 GiB (60%)\nTitle : ~SaNRiM~\nWriting library : x264 core 140 r2377 1ca7bb9\nLanguage : English\nDefault : Yes\nForced : No\n\n\nAudio #1\n\nID : 2\nFormat : DTS\nFormat/Info : Digital Theater Systems\nMode : 16\nFormat settings, Endianness : Big\nCodec ID : A_DTS\nDuration : 1h 26mn\nBit rate mode : Constant\nBit rate : 768 Kbps\nChannel(s) : 6 channels\nChannel positions : Front: L C R, Side: L R, LFE\nSampling rate : 48.0 KHz\nBit depth : 24 bits\nCompression mode : Lossy\nStream size : 474 MiB (24%)\nTitle : ~SaNRiM~\nLanguage : Hindi\nDefault : No\nForced : No\n\n\nAudio #2\n\nID : 3\nFormat : AC-3\nFormat/Info : Audio Coding 3\nMode extension : CM (complete main)\nFormat settings, Endianness : Big\nCodec ID : A_AC3\nDuration : 1h 26mn\nBit rate mode : Constant\nBit rate : 448 Kbps\nChannel(s) : 6 channels\nChannel positions : Front: L C R, Side: L R, LFE\nSampling rate : 48.0 KHz\nBit depth : 16 bits\nCompression mode : Lossy\nStream size : 277 MiB (14%)\nTitle : ~SaNRiM~\nLanguage : English\nDefault : No\nForced : No\n\n\n\n\nScreens\n &lt;a href=&quot;\nhttp://someimage.com/5UReCQ3&quot; rel=&quot;nofollow&quot; target=&quot;_NEW&quot;&gt;\nhttp://someimage.com/5UReCQ3&lt;/a&gt; &lt;a href=&quot;\nhttp://someimage.com/Too8SYI&quot; rel=&quot;nofollow&quot; target=&quot;_NEW&quot;&gt;\nhttp://someimage.com/Too8SYI&lt;/a&gt; &lt;a href=&quot;\nhttp://someimage.com/E5I21ov&quot; rel=&quot;nofollow&quot; target=&quot;_NEW&quot;&gt;\nhttp://someimage.com/E5I21ov&lt;/a&gt; &lt;a href=&quot;\nhttp://someimage.com/hgUFUuo&quot; rel=&quot;nofollow&quot; target=&quot;_NEW&quot;&gt;\nhttp://someimage.com/hgUFUuo&lt;/a&gt; &lt;a href=&quot;\nhttp://someimage.com/CrqKbpT&quot; rel=&quot;nofollow&quot; target=&quot;_NEW&quot;&gt;\nhttp://someimage.com/CrqKbpT&lt;/a&gt; &lt;a href=&quot;\nhttp://someimage.com/Ttd9SIa&quot; rel=&quot;nofollow&quot; target=&quot;_NEW&quot;&gt;\nhttp://someimage.com/Ttd9SIa&lt;/a&gt; &lt;a href=&quot;\nhttp://someimage.com/DADXE0m&quot; rel=&quot;nofollow&quot; target=&quot;_NEW&quot;&gt;\nhttp://someimage.com/DADXE0m&lt;/a&gt; &lt;a href=&quot;\nhttp://someimage.com/Qc8sJAW&quot; rel=&quot;nofollow&quot; target=&quot;_NEW&quot;&gt;\nhttp://someimage.com/Qc8sJAW&lt;/a&gt; &lt;a href=&quot;\nhttp://someimage.com/oIEUTFE&quot; rel=&quot;nofollow&quot; target=&quot;_NEW&quot;&gt;\nhttp://someimage.com/oIEUTFE&lt;/a&gt; &lt;a href=&quot;\nhttp://someimage.com/eumzs90&quot; rel=&quot;nofollow&quot; target=&quot;_NEW&quot;&gt;\nhttp://someimage.com/eumzs90&lt;/a&gt; &lt;a href=&quot;\nhttp://someimage.com/GU9avl1&quot; rel=&quot;nofollow&quot; target=&quot;_NEW&quot;&gt;\nhttp://someimage.com/GU9avl1&lt;/a&gt; &lt;a href=&quot;\nhttp://someimage.com/VclKeuh&quot; rel=&quot;nofollow&quot; target=&quot;_NEW&quot;&gt;\nhttp://someimage.com/VclKeuh&lt;/a&gt; &lt;a href=&quot;\nhttp://someimage.com/fmF09Zl&quot; rel=&quot;nofollow&quot; target=&quot;_NEW&quot;&gt;\nhttp://someimage.com/fmF09Zl&lt;/a&gt; &lt;a href=&quot;\nhttp://someimage.com/1ZzDaxA&quot; rel=&quot;nofollow&quot; target=&quot;_NEW&quot;&gt;\nhttp://someimage.com/1ZzDaxA&lt;/a&gt; &lt;a href=&quot;\nhttp://someimage.com/wbWpKW4&quot; rel=&quot;nofollow&quot; target=&quot;_NEW&quot;&gt;\nhttp://someimage.com/wbWpKW4&lt;/a&gt; &lt;a href=&quot;\nhttp://someimage.com/zbfjhVD&quot; rel=&quot;nofollow&quot; target=&quot;_NEW&quot;&gt;\nhttp://someimage.com/zbfjhVD&lt;/a&gt; &lt;a href=&quot;\nhttp://someimage.com/Kvq9LXk&quot; rel=&quot;nofollow&quot; target=&quot;_NEW&quot;&gt;\nhttp://someimage.com/Kvq9LXk&lt;/a&gt; &lt;a href=&quot;\nhttp://someimage.com/lshDCtt&quot; rel=&quot;nofollow&quot; target=&quot;_NEW&quot;&gt;\nhttp://someimage.com/lshDCtt&lt;/a&gt; &lt;a href=&quot;\nhttp://someimage.com/TrJFgad&quot; rel=&quot;nofollow&quot; target=&quot;_NEW&quot;&gt;\nhttp://someimage.com/TrJFgad&lt;/a&gt; &lt;a href=&quot;\nhttp://someimage.com/0QYGvUS&quot; rel=&quot;nofollow&quot; target=&quot;_NEW&quot;&gt;\nhttp://someimage.com/0QYGvUS&lt;/a&gt;\n\n\n\n                A BIG THANKS TO BONIIN FOR AUDIO\n\n\n\n                  If you like my work please comment\n                          Any request? Just PM me\n                       Please seed long after download\n                         Thank you &amp; enjoy the best\n                                 ~SaNRiM~","torrent":{"xt":"urn:btih:fe1cec12d2788b1eac9c21c5c9f92c946444d39a","amp;dn":"The+Lorax+%282012%29+1080p+BluRay+%7BDual+Audio%7D+%7B6Ch.%7D+%5BHindi+DTS+5.1","amp;tr":["udp%3A%2F%2Ftracker.openbittorrent.com%3A80","udp%3A%2F%2Fopen.demonii.com%3A1337","udp%3A%2F%2Ftracker.coppersurfer.tk%3A6969","udp%3A%2F%2Fexodus.desync.com%3A6969"],"infoHash":"fe1cec12d2788b1eac9c21c5c9f92c946444d39a","infoHashBuffer":{"type":"Buffer","data":[254,28,236,18,210,120,139,30,172,156,33,197,201,249,44,148,100,68,211,154]},"announce":[],"urlList":[]}}